<svg xmlns="http://www.w3.org/2000/svg" xmlns:xlink="http://www.w3.org/1999/xlink" width="475" zoomAndPan="magnify" viewBox="0 0 356.25 356.249992" height="475" preserveAspectRatio="xMidYMid meet" version="1.0"><defs><clipPath id="ef27e148d7"><path d="M 33.289062 0 L 322.179688 0 L 322.179688 355.460938 L 33.289062 355.460938 Z M 33.289062 0 " clip-rule="nonzero"/></clipPath></defs><g clip-path="url(#ef27e148d7)"><path fill="#000000" d="M 287.8125 355.453125 L 67.65625 355.453125 C 48.699219 355.453125 33.289062 340.042969 33.289062 321.09375 L 33.289062 34.324219 C 33.289062 15.375 48.699219 -0.0351562 67.65625 -0.0351562 L 287.8125 -0.0351562 C 306.765625 -0.0351562 322.179688 15.375 322.179688 34.324219 L 322.179688 321.09375 C 322.179688 340.042969 306.765625 355.453125 287.8125 355.453125 Z M 67.65625 9.753906 C 54.117188 9.753906 43.078125 20.789062 43.078125 34.324219 L 43.078125 321.09375 C 43.078125 334.628906 54.117188 345.667969 67.65625 345.667969 L 287.8125 345.667969 C 301.351562 345.667969 312.390625 334.628906 312.390625 321.09375 L 312.390625 34.324219 C 312.390625 20.789062 301.351562 9.753906 287.8125 9.753906 Z M 67.65625 9.753906 " fill-opacity="1" fill-rule="evenodd"/></g><path fill="#000000" d="M 207.832031 322.339844 L 66.820312 322.339844 C 64.113281 322.339844 62.03125 320.257812 62.03125 317.550781 L 62.03125 37.867188 C 62.03125 35.160156 64.113281 32.867188 66.820312 32.867188 L 288.644531 32.867188 C 291.144531 32.867188 293.4375 35.160156 293.4375 37.867188 L 293.4375 249.453125 C 293.4375 251.953125 291.144531 254.242188 288.644531 254.242188 L 212.828125 254.242188 L 212.828125 317.550781 C 212.828125 320.257812 210.539062 322.339844 207.832031 322.339844 Z M 71.613281 312.761719 L 203.039062 312.761719 L 203.039062 249.453125 C 203.039062 246.746094 205.332031 244.453125 207.832031 244.453125 L 283.648438 244.453125 L 283.648438 42.65625 L 71.613281 42.65625 Z M 71.613281 312.761719 " fill-opacity="1" fill-rule="evenodd"/><path fill="#000000" d="M 207.832031 322.339844 C 207.207031 322.339844 206.582031 322.339844 205.957031 321.925781 C 204.082031 321.09375 203.039062 319.425781 203.039062 317.550781 L 203.039062 249.453125 C 203.039062 246.746094 205.332031 244.453125 207.832031 244.453125 L 288.644531 244.453125 C 290.519531 244.453125 292.394531 245.703125 293.019531 247.785156 C 293.851562 249.660156 293.226562 251.742188 291.769531 252.992188 L 211.164062 321.300781 C 210.121094 322.132812 209.082031 322.339844 207.832031 322.339844 Z M 212.828125 254.242188 L 212.828125 307.140625 L 275.316406 254.242188 Z M 212.828125 254.242188 " fill-opacity="1" fill-rule="evenodd"/><path fill="#000000" d="M 227.410156 69.730469 L 128.058594 69.730469 C 119.933594 69.730469 113.0625 63.066406 113.0625 54.734375 L 113.0625 4.753906 C 113.0625 2.046875 115.351562 -0.0351562 118.058594 -0.0351562 L 237.40625 -0.0351562 C 240.117188 -0.0351562 242.199219 2.046875 242.199219 4.753906 L 242.199219 54.734375 C 242.199219 63.066406 235.53125 69.730469 227.410156 69.730469 Z M 122.851562 9.753906 L 122.851562 54.734375 C 122.851562 57.652344 125.140625 59.941406 128.058594 59.941406 L 227.410156 59.941406 C 230.117188 59.941406 232.617188 57.652344 232.617188 54.734375 L 232.617188 9.753906 Z M 122.851562 9.753906 " fill-opacity="1" fill-rule="evenodd"/><path fill="#000000" d="M 143.472656 150.949219 C 135.140625 150.949219 127.015625 147.824219 120.769531 141.578125 C 108.269531 129.082031 108.269531 108.882812 120.769531 96.386719 C 126.808594 90.347656 134.929688 87.015625 143.472656 87.015625 C 152.011719 87.015625 159.925781 90.347656 165.964844 96.386719 C 167.839844 98.261719 167.839844 101.382812 165.964844 103.257812 C 164.089844 105.132812 160.96875 105.132812 159.09375 103.257812 C 154.925781 99.09375 149.304688 96.800781 143.472656 96.800781 C 137.429688 96.800781 131.808594 99.09375 127.640625 103.257812 C 118.894531 112.003906 118.894531 126.167969 127.640625 134.703125 C 136.390625 143.453125 150.550781 143.453125 159.09375 134.703125 C 160.96875 132.832031 164.089844 132.832031 165.964844 134.703125 C 167.839844 136.578125 167.839844 139.703125 165.964844 141.578125 C 159.71875 147.824219 151.59375 150.949219 143.472656 150.949219 Z M 143.472656 150.949219 " fill-opacity="1" fill-rule="evenodd"/><path fill="#000000" d="M 212.203125 147.199219 C 210.332031 147.199219 208.871094 146.367188 207.832031 144.910156 L 180.960938 98.050781 C 179.710938 95.761719 180.335938 92.84375 182.835938 91.386719 C 185.128906 90.136719 188.042969 90.972656 189.292969 93.261719 L 212.203125 132.621094 L 234.90625 93.261719 C 236.15625 90.972656 239.28125 90.136719 241.574219 91.386719 C 243.863281 92.84375 244.699219 95.761719 243.238281 98.050781 L 216.371094 144.910156 C 215.539062 146.367188 213.871094 147.199219 212.203125 147.199219 Z M 212.203125 147.199219 " fill-opacity="1" fill-rule="evenodd"/><path fill="#000000" d="M 250.53125 174.480469 L 104.730469 174.480469 C 102.230469 174.480469 99.9375 172.398438 99.9375 169.691406 C 99.9375 166.984375 102.230469 164.691406 104.730469 164.691406 L 250.53125 164.691406 C 253.238281 164.691406 255.527344 166.984375 255.527344 169.691406 C 255.527344 172.398438 253.238281 174.480469 250.53125 174.480469 Z M 250.53125 174.480469 " fill-opacity="1" fill-rule="evenodd"/><path fill="#000000" d="M 250.53125 200.929688 L 104.730469 200.929688 C 102.230469 200.929688 99.9375 198.636719 99.9375 195.929688 C 99.9375 193.222656 102.230469 191.140625 104.730469 191.140625 L 250.53125 191.140625 C 253.238281 191.140625 255.527344 193.222656 255.527344 195.929688 C 255.527344 198.636719 253.238281 200.929688 250.53125 200.929688 Z M 250.53125 200.929688 " fill-opacity="1" fill-rule="evenodd"/><path fill="#000000" d="M 250.53125 227.167969 L 104.730469 227.167969 C 102.230469 227.167969 99.9375 225.085938 99.9375 222.378906 C 99.9375 219.671875 102.230469 217.589844 104.730469 217.589844 L 250.53125 217.589844 C 253.238281 217.589844 255.527344 219.671875 255.527344 222.378906 C 255.527344 225.085938 253.238281 227.167969 250.53125 227.167969 Z M 250.53125 227.167969 " fill-opacity="1" fill-rule="evenodd"/></svg>